<svg id="Capa_1" enable-background="new 0 0 512 512" height="512" viewBox="0 0 512 512" width="512" xmlns="http://www.w3.org/2000/svg" xmlns:xlink="http://www.w3.org/1999/xlink"><linearGradient id="SVGID_1_" gradientUnits="userSpaceOnUse" x1="256" x2="256" y1="512" y2="0"><stop offset="0" stop-color="#ffbef9"/><stop offset="1" stop-color="#fff1ff"/></linearGradient><linearGradient id="SVGID_2_" gradientUnits="userSpaceOnUse" x1="256" x2="256" y1="407" y2="105"><stop offset="0" stop-color="#ff81ff"/><stop offset="1" stop-color="#a93aff"/></linearGradient><g><g><circle cx="256" cy="256" fill="url(#SVGID_1_)" r="256"/></g><g><g><path d="m336.1 282.647h-8.9v-53.294h8.9c4.919 0 8.9-3.973 8.9-8.882s-3.981-8.882-8.9-8.882h-8.9v-8.882c0-14.694-11.977-26.647-26.7-26.647h-106.8c-14.723 0-26.7 11.953-26.7 26.647v106.588c0 14.694 11.977 26.647 26.7 26.647h106.8c14.723 0 26.7-11.953 26.7-26.647v-8.882h8.9c4.919 0 8.9-3.973 8.9-8.882s-3.981-8.884-8.9-8.884zm-70.122 2.602c-3.477 3.47-9.109 3.47-12.585 0-3.477-3.47-9.109-3.47-12.585 0s-9.109 3.47-12.585 0-3.477-9.091 0-12.56c10.412-10.392 27.343-10.392 37.755 0 3.476 3.47 3.476 9.091 0 12.56zm25.17-25.12c-3.476 3.469-9.109 3.47-12.585 0-16.774-16.741-46.151-16.741-62.926 0-3.477 3.47-9.109 3.47-12.585 0s-3.477-9.091 0-12.56c23.501-23.455 64.594-23.455 88.096 0 3.477 3.469 3.477 9.09 0 12.56zm.183-148.398c-.991-3.956-4.546-6.731-8.631-6.731h-71.2c-4.085 0-7.64 2.776-8.631 6.731l-11.664 46.563h111.789zm-88.462 288.538c.991 3.955 4.546 6.731 8.631 6.731h71.2c4.085 0 7.64-2.776 8.631-6.731l11.664-46.563h-111.789z" fill="url(#SVGID_2_)"/></g></g></g></svg>